<?xml version="1.0" standalone="no"?>
<!DOCTYPE svg PUBLIC "-//W3C//DTD SVG 1.1//EN" "http://www.w3.org/Graphics/SVG/1.1/DTD/svg11.dtd" >
<svg xmlns="http://www.w3.org/2000/svg" xmlns:xlink="http://www.w3.org/1999/xlink" version="1.1">
<metadata></metadata>
<defs>
<font id="spartan_mbbold" horiz-adv-x="1273" >
<font-face units-per-em="2048" ascent="1638" descent="-410" />
<missing-glyph horiz-adv-x="536" />
<glyph unicode="&#xfb01;" horiz-adv-x="1167" d="M75 747v206h124v247q0 198 91.5 313.5t252.5 115.5q120 0 224.5 -42.5t165.5 -103.5l-100 -186q-37 38 -97 66t-114 28q-82 0 -116 -46t-34 -151v-241h579v-953h-273v747h-306v-747h-273v747h-124z" />
<glyph unicode="&#xfb02;" horiz-adv-x="1173" d="M37 747v206h126v247q0 198 90.5 313.5t250.5 115.5q113 0 188 -43l-63 -213q-40 16 -79 16q-65 0 -90.5 -44.5t-25.5 -150.5v-241h226v-206h-226v-747h-271v747h-126zM754 0v1601h271v-1601h-271z" />
<glyph horiz-adv-x="0" />
<glyph horiz-adv-x="0" />
<glyph unicode="&#xd;" horiz-adv-x="499" />
<glyph unicode=" "  horiz-adv-x="536" />
<glyph unicode="&#x09;" horiz-adv-x="536" />
<glyph unicode="&#xa0;" horiz-adv-x="536" />
<glyph unicode="!" horiz-adv-x="621" d="M133 148q0 74 52 126t126 52t126 -52t52 -126t-52 -126t-126 -52t-126 52t-52 126zM175 1601h272l-36 -1139h-200z" />
<glyph unicode="&#x22;" horiz-adv-x="824" d="M104 1601h263l-49 -591h-164zM458 1601h263l-49 -591h-165z" />
<glyph unicode="#" horiz-adv-x="1464" d="M155 402v185h204l39 305h-243v185h266l50 402h186l-52 -402h335l51 402h186l-52 -402h186v-185h-208l-38 -305h246v-185h-269l-50 -402h-184l49 402h-336l-49 -402h-184l48 402h-181zM545 587h335l39 305h-335z" />
<glyph unicode="$" horiz-adv-x="1239" d="M37 213l158 198q89 -83 191.5 -129t201.5 -46q107 0 174 52t67 141q0 81 -65.5 136.5t-240.5 124.5q-209 82 -303.5 185.5t-94.5 246.5q0 109 53 204.5t154.5 159t232.5 75.5v232h168v-238q98 -16 184 -58.5t140 -96.5l-139 -205q-62 48 -140.5 77.5t-156.5 29.5 q-100 0 -158 -50.5t-58 -123.5q0 -65 59.5 -114.5t207.5 -105.5q118 -45 198 -87.5t145 -98.5t95.5 -126.5t30.5 -159.5q0 -184 -110.5 -303.5t-297.5 -151.5v-238h-168v228q-165 7 -308 73.5t-220 168.5z" />
<glyph unicode="%" horiz-adv-x="1836" d="M56 1197q0 161 116 264t289 103t289 -103t116 -264t-116 -264t-289 -103t-289 103t-116 264zM259 1197q0 -88 58 -144.5t144 -56.5t144 56.5t58 144.5t-58 144.5t-144 56.5t-144 -56.5t-58 -144.5zM380 0l893 1536h186l-894 -1536h-185zM971 337q0 161 116 264t289 103 t289 -103t116 -264t-116 -264t-289 -103t-289 103t-116 264zM1174 337q0 -88 58 -144.5t144 -56.5t144 56.5t58 144.5t-58 144.5t-144 56.5t-144 -56.5t-58 -144.5z" />
<glyph unicode="&#x26;" horiz-adv-x="1513" d="M12 387q0 148 92 258t280 189q-94 110 -132 190t-38 164q0 174 126 276t316 102q105 0 191 -33t139 -87t81 -120t28 -136q0 -227 -309 -388l271 -286q78 60 210 210l177 -168q-125 -149 -209 -226l315 -332h-360l-168 177q-229 -207 -513 -207q-221 0 -359 114.5 t-138 302.5zM334 430q0 -88 60.5 -138t153.5 -50q151 0 288 129l-304 309q-92 -36 -145 -103t-53 -147zM505 1195q0 -56 31 -110.5t104 -124.5q106 58 154.5 110.5t48.5 121.5q0 75 -49 122t-124 47q-74 0 -119.5 -46t-45.5 -120z" />
<glyph unicode="'" horiz-adv-x="471" d="M104 1601h263l-49 -591h-164z" />
<glyph unicode="(" horiz-adv-x="713" d="M125 572q0 172 30.5 339.5t81.5 301.5t106 237t114 179l168 -86q-99 -151 -174 -405.5t-75 -565.5q0 -308 75 -562.5t174 -406.5l-168 -87q-59 77 -114 180t-106 236.5t-81.5 301t-30.5 338.5z" />
<glyph unicode=")" horiz-adv-x="713" d="M73 -397q99 152 173.5 407t74.5 563q0 163 -22.5 318.5t-60.5 277.5t-79 214t-86 160l167 87q59 -76 114 -179t106 -237t82 -301.5t31 -339.5q0 -171 -31 -338.5t-82 -301t-106 -236.5t-114 -180z" />
<glyph unicode="*" horiz-adv-x="801" d="M97 1338l40 122l196 -62v203h135v-203l197 62l40 -122l-197 -70l116 -170l-102 -70l-122 159l-121 -159l-101 70l115 170z" />
<glyph unicode="+" horiz-adv-x="1177" d="M111 654v235h360v360h235v-360h360v-235h-360v-360h-235v360h-360z" />
<glyph unicode="," horiz-adv-x="566" d="M104 150q0 75 51.5 125.5t128.5 50.5t128 -54t51 -143q0 -105 -71 -223t-194 -218l-76 63q36 33 72 105t45 129q-63 15 -99 59.5t-36 105.5z" />
<glyph unicode="-" horiz-adv-x="830" d="M115 422v233h600v-233h-600z" />
<glyph unicode="." horiz-adv-x="564" d="M104 148q0 74 52 126t126 52t126 -52t52 -126t-52 -126t-126 -52t-126 52t-52 126z" />
<glyph unicode="/" horiz-adv-x="1071" d="M36 -223l767 1824h232l-767 -1824h-232z" />
<glyph unicode="0" horiz-adv-x="1415" d="M77 767q0 235 78.5 416t222.5 281t330 100t330 -100t223 -281.5t79 -415.5t-79 -415.5t-223 -281.5t-330 -100t-330 100t-222.5 281t-78.5 416zM380 767q0 -252 88 -398t240 -146q151 0 239.5 146t88.5 398t-88.5 398t-239.5 146q-152 0 -240 -146t-88 -398z" />
<glyph unicode="1" horiz-adv-x="743" d="M133 1254v282h478v-1536h-287v1254h-191z" />
<glyph unicode="2" horiz-adv-x="1393" d="M115 0v146q461 355 644 553t183 343q0 110 -76 188t-188 78q-103 0 -182.5 -72t-107.5 -193l-242 72q54 211 198.5 330.5t350.5 119.5q158 0 285.5 -66.5t199 -184t71.5 -264.5q0 -187 -138 -367.5t-473 -426.5h639v-256h-1164z" />
<glyph unicode="3" horiz-adv-x="1222" d="M59 360l250 59q20 -91 93 -145t180 -54q115 0 183.5 63t68.5 168q0 111 -72.5 186t-177.5 75q-37 0 -67 -11v193h68q93 0 159 68t66 158t-65 150.5t-160 60.5q-89 0 -157 -54t-88 -140l-214 72q38 164 163.5 259.5t300.5 95.5q208 0 345 -125.5t137 -313.5 q0 -97 -43.5 -177.5t-122.5 -131.5q101 -53 158.5 -147t57.5 -217q0 -209 -151 -345.5t-390 -136.5q-206 0 -348 106t-174 284z" />
<glyph unicode="4" horiz-adv-x="1194" d="M-47 283v91l752 1162h285v-1002h178v-251h-178v-283h-270v283h-767zM343 534h377v617z" />
<glyph unicode="5" horiz-adv-x="1218" d="M34 304l228 111q29 -93 113 -149t196 -56q131 0 208 76t77 199q0 148 -111.5 233t-299.5 85q-177 0 -315 -99l130 832h784v-251h-539l-48 -309q79 36 173 36q227 0 369.5 -140t142.5 -369q0 -162 -75.5 -284.5t-203.5 -185.5t-287 -63q-188 0 -336 88.5t-206 245.5z" />
<glyph unicode="6" horiz-adv-x="1283" d="M67 512q0 130 58 269t168 271l401 484h347l-453 -538q62 31 146 31q209 0 348 -148.5t139 -378.5q0 -238 -155.5 -385t-405.5 -147q-173 0 -309.5 72.5t-210 196t-73.5 273.5zM364 491q0 -119 79 -200.5t203 -81.5q125 0 207 80t82 204t-82 207t-201 83 q-121 0 -204.5 -84.5t-83.5 -207.5z" />
<glyph unicode="7" horiz-adv-x="1218" d="M51 0l727 1285h-690v251h1114v-86l-812 -1450h-339z" />
<glyph unicode="8" horiz-adv-x="1255" d="M80 423q0 133 75 241.5t199 160.5q-99 52 -155.5 143t-56.5 197q0 170 141 284.5t344 114.5q121 0 230 -46t182 -139t73 -213q0 -108 -57 -199t-154 -142q125 -52 200 -161t75 -242q0 -129 -73 -232.5t-198.5 -161.5t-277.5 -58t-277 58t-197.5 162t-72.5 233zM392 453 q0 -101 65.5 -167.5t169.5 -66.5q105 0 170.5 66.5t65.5 167.5q0 103 -66.5 170t-169.5 67q-101 0 -168 -66.5t-67 -170.5zM419 1138q0 -89 59 -148.5t149 -59.5t149.5 59.5t59.5 148.5q0 88 -60 147.5t-149 59.5t-148.5 -59t-59.5 -148z" />
<glyph unicode="9" horiz-adv-x="1283" d="M61 1037q0 110 39 206.5t110 167.5t177.5 112t234.5 41q131 0 242.5 -42.5t187.5 -116.5t119 -174t43 -214q0 -261 -225 -533l-401 -484h-348l459 543q-60 -37 -142 -37q-96 0 -186 39.5t-158.5 108t-110 169t-41.5 214.5zM349 1042q0 -123 82 -205.5t204 -82.5 q118 0 199.5 84t81.5 204q0 123 -79 202.5t-202 79.5t-204.5 -80t-81.5 -202z" />
<glyph unicode=":" horiz-adv-x="564" d="M104 148q0 74 52 126t126 52t126 -52t52 -126t-52 -126t-126 -52t-126 52t-52 126zM104 892q0 74 52 126t126 52t126 -52t52 -126t-52 -126t-126 -52t-126 52t-52 126z" />
<glyph unicode=";" horiz-adv-x="592" d="M104 892q0 74 52 126t126 52t126 -52t52 -126t-52 -126t-126 -52t-126 52t-52 126zM130 150q0 75 51.5 125.5t128.5 50.5t128 -54t51 -143q0 -105 -71 -223t-194 -218l-76 63q36 33 72 105t45 129q-63 15 -99 59.5t-36 105.5z" />
<glyph unicode="&#x3c;" horiz-adv-x="1210" d="M64 685v179l1018 434v-219l-728 -304l728 -305v-219z" />
<glyph unicode="=" horiz-adv-x="1184" d="M115 442v235h954v-235h-954zM115 869v234h954v-234h-954z" />
<glyph unicode="&#x3e;" horiz-adv-x="1210" d="M128 251v219l728 305l-728 304v219l1018 -434v-179z" />
<glyph unicode="?" horiz-adv-x="1102" d="M55 1226q45 157 176 247.5t303 90.5q108 0 202 -37t158 -99.5t101 -146.5t37 -177q0 -172 -112 -300t-278 -153v-181h-251v420q50 -13 107 -13q129 0 203.5 59.5t74.5 164.5q0 102 -68.5 162t-181.5 60q-95 0 -164 -44.5t-104 -126.5zM339 148q0 74 52 126t126 52 t125.5 -52t51.5 -126t-51.5 -126t-125.5 -52t-126 52t-52 126z" />
<glyph unicode="@" horiz-adv-x="1737" d="M69 356q0 227 111.5 410.5t299.5 284.5t414 101q160 0 304 -53.5t251.5 -148t170.5 -234.5t63 -304q0 -100 -27 -177.5t-74 -124t-106 -70t-126 -23.5q-145 0 -236 93q-97 -152 -277 -152q-155 0 -259 110.5t-104 276.5t104 277t264 111q81 0 149.5 -34t111.5 -93v104 h173v-407q0 -122 107 -122q55 0 88.5 52.5t33.5 163.5t-35.5 205t-95 158t-138 109t-164 65.5t-173.5 20.5q-134 0 -249.5 -49.5t-192 -132t-120 -191t-43.5 -225.5q0 -160 78.5 -293t217 -209.5t306.5 -76.5q128 0 228 44.5t158 109.5l180 -118q-79 -108 -225.5 -181.5 t-342.5 -73.5q-169 0 -321 60t-263 164.5t-176 253.5t-65 319zM672 345q0 -97 60 -158t154 -61q96 0 157 61.5t61 158.5q0 99 -62 162t-154 63t-154 -63.5t-62 -162.5z" />
<glyph unicode="A" horiz-adv-x="1414" d="M-42 0l617 1536h265l617 -1536h-309l-136 362h-609l-136 -362h-309zM502 614h411l-206 535z" />
<glyph unicode="B" horiz-adv-x="1228" d="M133 0v1536h431q225 0 348.5 -98.5t123.5 -287.5q0 -241 -200 -339q163 -26 250 -124t87 -258q0 -201 -133 -315t-363 -114h-544zM420 222h160q144 0 218 55t74 161q0 107 -75.5 164.5t-216.5 57.5h-160v-438zM420 909h78q127 0 194.5 52.5t67.5 150.5q0 202 -262 202 h-78v-405z" />
<glyph unicode="C" horiz-adv-x="1429" d="M82 767q0 165 62 312t169.5 253.5t261 169t327.5 62.5q139 0 267 -39t222 -107l-139 -235q-135 99 -331 99q-158 0 -279.5 -68t-185 -184.5t-63.5 -262.5t63.5 -262.5t185 -184.5t279.5 -68q196 0 331 99l139 -235q-94 -68 -222 -107t-267 -39q-174 0 -327.5 62.5 t-261 169t-169.5 253.5t-62 312z" />
<glyph unicode="D" horiz-adv-x="1384" d="M133 0v1536h415q161 0 304.5 -59.5t247 -161.5t163.5 -244.5t60 -302.5t-60 -302.5t-163 -244.5t-246.5 -161.5t-305.5 -59.5h-415zM420 257h97q214 0 356 145.5t142 365.5t-142 365.5t-356 145.5h-97v-1022z" />
<glyph unicode="E" horiz-adv-x="1068" d="M133 0v1536h847v-252h-560v-388h538v-252h-538v-392h560v-252h-847z" />
<glyph unicode="F" horiz-adv-x="1035" d="M133 0v1536h855v-252h-568v-388h526v-253h-526v-643h-287z" />
<glyph unicode="G" horiz-adv-x="1578" d="M63 766q0 159 56 304t155 254.5t245 174.5t316 65q323 0 566 -250l-174 -169q-62 74 -160.5 116.5t-212.5 42.5q-113 0 -206 -44.5t-152.5 -119.5t-91.5 -171t-32 -202q0 -145 58.5 -266.5t165.5 -193.5t238 -72q159 0 277.5 98.5t118.5 247.5v25h-418v223h710v-183 q0 -131 -39 -242.5t-105.5 -190.5t-155 -134.5t-189 -82t-206.5 -26.5q-215 0 -391 107t-274.5 289.5t-98.5 399.5z" />
<glyph unicode="H" horiz-adv-x="1437" d="M133 0v1537h287v-641h597v641h287v-1537h-287v644h-597v-644h-287z" />
<glyph unicode="I" horiz-adv-x="552" d="M133 0v1536h287v-1536h-287z" />
<glyph unicode="J" horiz-adv-x="902" d="M-73 166l158 176q96 -97 211 -97q103 0 160.5 69t57.5 192v1030h287v-1104q0 -219 -121.5 -340.5t-337.5 -121.5q-126 0 -225.5 47t-189.5 149z" />
<glyph unicode="K" horiz-adv-x="1404" d="M155 0v1536h287v-646l575 646h351l-664 -741l756 -795h-397l-621 653v-653h-287z" />
<glyph unicode="L" horiz-adv-x="997" d="M133 0v1536h287v-1284h563v-252h-850z" />
<glyph unicode="M" horiz-adv-x="1762" d="M45 0l157 1536h305l374 -982l375 982h305l157 -1536h-287l-103 1020l-358 -977h-178l-358 977l-103 -1020h-286z" />
<glyph unicode="N" horiz-adv-x="1515" d="M133 0v1536h287l676 -1058v1058h286v-1536h-286l-676 1057v-1057h-287z" />
<glyph unicode="O" horiz-adv-x="1671" d="M61 767q0 131 39 252.5t110.5 219.5t166.5 171.5t213.5 113.5t245.5 40q158 0 301.5 -62.5t247 -169t164.5 -254.5t61 -311t-61 -311t-164.5 -254.5t-247 -169t-301.5 -62.5q-127 0 -245.5 40t-213.5 113.5t-166.5 171.5t-110.5 219.5t-39 252.5zM371 767 q0 -226 131 -373t334 -147t334 147t131 373t-131 373t-334 147t-334 -147t-131 -373z" />
<glyph unicode="P" horiz-adv-x="1187" d="M133 0v1536h511q231 0 372.5 -124.5t141.5 -346.5t-141.5 -346.5t-372.5 -124.5h-224v-594h-287zM420 823h137q133 0 217 60t84 182t-84 182t-217 60h-137v-484z" />
<glyph unicode="Q" horiz-adv-x="1742" d="M61 766q0 131 39 252.5t110.5 219.5t166.5 171.5t213.5 113.5t245.5 40q158 0 301.5 -62.5t247 -169t164.5 -254.5t61 -311q0 -257 -143 -464q121 -56 258 -96l-127 -256q-155 60 -314 165q-202 -146 -448 -146q-127 0 -245.5 40t-213.5 113.5t-166.5 171.5t-110.5 219.5 t-39 252.5zM371 766q0 -226 131 -373t334 -147q116 0 210 50q-119 105 -210 223l149 124q106 -110 227 -195q89 136 89 318q0 227 -131.5 374t-333.5 147t-333.5 -147t-131.5 -374z" />
<glyph unicode="R" horiz-adv-x="1266" d="M133 0v1536h512q232 0 373 -123t141 -342q0 -178 -95 -293.5t-261 -152.5l510 -625h-364l-448 585h-81v-585h-287zM420 833h138q136 0 218 59.5t82 178.5q0 120 -82 178t-218 58h-138v-474z" />
<glyph unicode="S" horiz-adv-x="1239" d="M47 213l157 198q89 -83 192 -129t202 -46q107 0 174 52t67 141q0 81 -65.5 136.5t-241.5 124.5q-209 82 -303.5 185.5t-94.5 246.5q0 88 36 168t100 141t158.5 97t205.5 36q127 0 244.5 -47t187.5 -117l-139 -205q-62 48 -140.5 77.5t-156.5 29.5q-100 0 -158 -50.5 t-58 -123.5q0 -65 59.5 -114.5t207.5 -105.5q118 -45 198.5 -87.5t145 -98.5t95.5 -126.5t31 -159.5q0 -144 -70 -250.5t-192 -161t-280 -54.5q-174 0 -327 68t-235 175z" />
<glyph unicode="T" horiz-adv-x="1107" d="M14 1282v254h1080v-254h-397v-1282h-286v1282h-397z" />
<glyph unicode="U" horiz-adv-x="1388" d="M115 546v990h286v-909q0 -198 69 -286.5t224 -88.5t224.5 88.5t69.5 286.5v909h286v-990q0 -286 -146 -431t-434 -145t-433.5 145t-145.5 431z" />
<glyph unicode="V" horiz-adv-x="1437" d="M-38 1536h324l433 -1105l433 1105h323l-644 -1536h-225z" />
<glyph unicode="W" horiz-adv-x="2053" d="M-38 1536h318l300 -1144l339 1144h216l339 -1144l299 1144h319l-444 -1536h-320l-301 982l-302 -982h-319z" />
<glyph unicode="X" horiz-adv-x="1442" d="M-38 0l583 828l-489 708h342l323 -470l323 470h343l-489 -708l583 -828h-356l-404 579l-404 -579h-355z" />
<glyph unicode="Y" horiz-adv-x="1320" d="M-38 1536h345l353 -561l353 561h345l-555 -854v-682h-286v682z" />
<glyph unicode="Z" horiz-adv-x="1423" d="M35 0l834 1284h-726v252h1230l-834 -1284h785v-252h-1289z" />
<glyph unicode="[" horiz-adv-x="755" d="M191 -484v2085h536v-182h-302v-1721h302v-182h-536z" />
<glyph unicode="\" horiz-adv-x="1071" d="M36 1601h232l767 -1601h-232z" />
<glyph unicode="]" horiz-adv-x="755" d="M44 -302h301v1721h-301v182h536v-2085h-536v182z" />
<glyph unicode="^" horiz-adv-x="897" d="M-7 1126l385 439h141l385 -439h-245l-211 246l-211 -246h-244z" />
<glyph unicode="_" horiz-adv-x="955" d="M0 -54h955v-133h-955v133z" />
<glyph unicode="`" horiz-adv-x="463" d="M-19 1308l121 193l380 -288l-85 -124z" />
<glyph unicode="a" d="M60 478q0 217 133.5 361t338.5 144q206 0 338 -163v133h272v-953h-272v133q-132 -163 -338 -163q-135 0 -243.5 67t-168.5 183t-60 258zM345 477q0 -119 75.5 -197t191.5 -78t190.5 77.5t74.5 197.5t-74.5 197t-190.5 77t-191.5 -77.5t-75.5 -196.5z" />
<glyph unicode="b" d="M132 0v1601h272v-780q131 162 338 162q136 0 244.5 -66t168.5 -181.5t60 -257.5q0 -217 -134 -362.5t-339 -145.5q-207 0 -338 162v-132h-272zM397 477q0 -120 75 -197.5t191 -77.5t191 77.5t75 197.5t-75 197t-191 77t-191 -77t-75 -197z" />
<glyph unicode="c" horiz-adv-x="952" d="M63 477q0 214 153 360t378 146q93 0 176.5 -26t139.5 -69l-101 -178q-71 51 -174 51q-126 0 -206 -82t-80 -202t80 -202t206 -82q104 0 174 50l101 -178q-56 -43 -139.5 -69t-176.5 -26q-225 0 -378 146.5t-153 360.5z" />
<glyph unicode="d" d="M60 478q0 142 60 257.5t168 181.5t244 66q207 0 338 -162v780h272v-1601h-272v132q-131 -162 -338 -162q-205 0 -338.5 145.5t-133.5 362.5zM345 477q0 -120 75.5 -197.5t191.5 -77.5t190.5 77.5t74.5 197.5t-74.5 197t-190.5 77t-191.5 -77t-75.5 -197z" />
<glyph unicode="e" horiz-adv-x="1152" d="M63 475q0 143 70 259.5t191.5 182.5t268.5 66q213 0 355 -140t142 -348q0 -23 -3 -54h-744q0 -114 76 -184t200 -70q146 0 251 127l197 -100q-68 -115 -190.5 -179.5t-272.5 -64.5q-232 0 -386.5 145t-154.5 360zM351 577h473q-12 98 -76.5 156.5t-161.5 58.5 q-99 0 -164.5 -59.5t-70.5 -155.5z" />
<glyph unicode="f" horiz-adv-x="661" d="M38 747v206h125v247q0 208 91 318.5t244 110.5q78 0 150 -28.5t118 -78.5l-131 -176q-35 39 -89 39q-111 0 -111 -179v-253h227v-206h-227v-747h-272v747h-125z" />
<glyph unicode="g" d="M61 478q0 142 59.5 257.5t167.5 181.5t244 66q208 0 338 -163v133h272v-979q0 -221 -142 -353.5t-412 -132.5q-192 0 -322 70.5t-190 206.5l223 108q39 -69 117 -109.5t172 -40.5q125 0 203.5 73.5t78.5 193.5v143q-130 -163 -338 -163q-205 0 -338 145.5t-133 362.5z M345 477q0 -119 76 -197t192 -78t190.5 77.5t74.5 197.5t-74.5 197t-190.5 77t-192 -77.5t-76 -196.5z" />
<glyph unicode="h" horiz-adv-x="1210" d="M134 0v1601h272v-756q55 64 138 101t181 37q165 0 268 -105.5t103 -275.5v-602h-272v545q0 106 -55 165.5t-151 59.5q-97 0 -154.5 -57t-57.5 -144v-569h-272z" />
<glyph unicode="i" horiz-adv-x="536" d="M106 1314q0 67 47.5 114t114.5 47t114.5 -47t47.5 -114t-47.5 -114.5t-114.5 -47.5t-114.5 47.5t-47.5 114.5zM132 0v953h272v-953h-272z" />
<glyph unicode="j" horiz-adv-x="536" d="M-198 -405l131 176q34 -39 87 -39q54 0 83 40.5t29 108.5v1072h272v-1119q0 -161 -87 -253.5t-240 -92.5q-83 0 -155.5 28.5t-119.5 78.5zM106 1314q0 67 47.5 114t114.5 47t114.5 -47t47.5 -114t-47.5 -114.5t-114.5 -47.5t-114.5 47.5t-47.5 114.5z" />
<glyph unicode="k" horiz-adv-x="1119" d="M137 0v1601h272v-1000l355 352h352l-463 -465l485 -488h-350l-379 384v-384h-272z" />
<glyph unicode="l" horiz-adv-x="536" d="M132 0v1601h272v-1601h-272z" />
<glyph unicode="m" horiz-adv-x="1829" d="M134 0v953h272v-129q115 159 295 159q111 0 199.5 -49.5t125.5 -133.5q137 183 334 183q157 0 256 -96t99 -255v-632h-272v558q0 96 -49.5 151.5t-134.5 55.5q-89 0 -144 -57t-55 -155v-553h-272v564q0 92 -48.5 146.5t-133.5 54.5q-89 0 -144.5 -58.5t-55.5 -159.5v-547 h-272z" />
<glyph unicode="n" horiz-adv-x="1210" d="M134 0v953h272v-130q53 78 135.5 119t183.5 41q165 0 268 -105t103 -275v-603h-272v546q0 105 -55 164.5t-151 59.5q-99 0 -155.5 -63t-56.5 -175v-532h-272z" />
<glyph unicode="o" horiz-adv-x="1238" d="M62 477q0 147 73.5 263t200.5 179.5t283 63.5t283 -63.5t200.5 -179.5t73.5 -263t-73.5 -263t-200.5 -180t-283 -64t-283 64t-200.5 180t-73.5 263zM346 477q0 -119 78 -196.5t195 -77.5t195 77.5t78 196.5t-78 196t-195 77t-195 -77t-78 -196z" />
<glyph unicode="p" d="M132 -484v1437h272v-132q131 162 338 162q136 0 244.5 -66t168.5 -181.5t60 -257.5q0 -217 -134 -362.5t-339 -145.5q-207 0 -338 162v-616h-272zM397 477q0 -120 75 -197.5t191 -77.5t191 77.5t75 197.5t-75 197t-191 77t-191 -77t-75 -197z" />
<glyph unicode="q" d="M60 478q0 142 60 257.5t168 181.5t244 66q207 0 338 -162v132h272v-1437h-272v616q-131 -162 -338 -162q-205 0 -338.5 145.5t-133.5 362.5zM345 477q0 -120 75.5 -197.5t191.5 -77.5t190.5 77.5t74.5 197.5t-74.5 197t-190.5 77t-191.5 -77t-75.5 -197z" />
<glyph unicode="r" horiz-adv-x="871" d="M134 0v953h272v-156q47 92 125 139t171 47q108 0 190 -51l-113 -230q-72 46 -152 46q-93 0 -157 -71.5t-64 -195.5v-481h-272z" />
<glyph unicode="s" horiz-adv-x="909" d="M55 124l118 150q106 -103 238 -103q60 0 98 26.5t38 75.5q0 45 -40.5 73.5t-130.5 62.5q-48 18 -78.5 31t-75 39t-70 53.5t-45 69.5t-19.5 92q0 124 102.5 206t267.5 82q183 0 318 -107l-97 -145q-87 68 -202 68q-62 0 -97 -25t-35 -64q0 -41 42 -68.5t145 -65.5 q148 -54 223.5 -126t75.5 -183q0 -141 -105 -218.5t-289 -77.5q-238 0 -382 154z" />
<glyph unicode="t" horiz-adv-x="698" d="M27 747v206h125v357h272v-357h212v-206h-212v-419q0 -115 86 -115q39 0 70 20l100 -198q-46 -30 -109.5 -47.5t-125.5 -17.5q-139 0 -216 89.5t-77 248.5v439h-125z" />
<glyph unicode="u" horiz-adv-x="1197" d="M115 444v509h272v-446q0 -166 49.5 -240.5t162.5 -74.5t162 74t49 241v446h272v-509q0 -239 -118.5 -356.5t-364.5 -117.5t-365 117.5t-119 356.5z" />
<glyph unicode="v" horiz-adv-x="1124" d="M-26 953h321l267 -592l267 592h322l-498 -953h-182z" />
<glyph unicode="w" horiz-adv-x="1794" d="M-26 953h311l268 -590l251 590h185l251 -590l270 590h311l-498 -953h-183l-243 568l-243 -568h-182z" />
<glyph unicode="x" horiz-adv-x="1092" d="M-26 0l407 499l-349 454h314l200 -266l201 266h314l-349 -454l407 -499h-326l-247 311l-246 -311h-326z" />
<glyph unicode="y" horiz-adv-x="1131" d="M-26 953h312l299 -580l260 580h313l-722 -1437h-311l301 595z" />
<glyph unicode="z" horiz-adv-x="1046" d="M13 0l542 745h-467v208h929l-545 -744h512v-209h-971z" />
<glyph unicode="{" horiz-adv-x="761" d="M106 485v147q116 0 116 112v520q0 64 13.5 119t45 106.5t92.5 81.5t146 30h148v-198h-66q-66 0 -104.5 -43.5t-38.5 -116.5v-512q0 -122 -96 -172q96 -50 96 -173v-512q0 -73 38.5 -116.5t104.5 -43.5h66v-198h-148q-85 0 -146 30t-92.5 81.5t-45 106.5t-13.5 119v520 q0 112 -116 112z" />
<glyph unicode="|" horiz-adv-x="501" d="M133 0v1601h236v-1601h-236z" />
<glyph unicode="}" horiz-adv-x="761" d="M81 -286h65q66 0 105 43.5t39 116.5v512q0 124 95 173q-95 49 -95 172v512q0 73 -39 116.5t-105 43.5h-65v198h148q69 0 122 -20.5t85 -53t53 -78t28.5 -90.5t7.5 -95v-520q0 -112 116 -112v-147q-116 0 -116 -112v-520q0 -50 -7.5 -95t-28.5 -90.5t-53 -78t-85 -53 t-122 -20.5h-148v198z" />
<glyph unicode="~" horiz-adv-x="1269" d="M140 726q114 224 300 224q47 0 91 -15.5t78 -37.5t66.5 -44t70 -37.5t75.5 -15.5q107 0 169 112l141 -93q-111 -224 -300 -224q-47 0 -91 15.5t-77.5 37.5t-66 44.5t-70.5 38t-76 15.5q-106 0 -167 -113z" />
<glyph unicode="&#xa1;" horiz-adv-x="621" d="M133 967q0 74 52 126t126 52t126 -52t52 -126t-52 -126t-126 -52t-126 52t-52 126zM175 -486l36 1139h200l36 -1139h-272z" />
<glyph unicode="&#xa2;" horiz-adv-x="952" d="M23 477q0 181 112 316.5t290 175.5v215h168v-202q82 -5 154.5 -30.5t122.5 -63.5l-101 -178q-71 51 -174 51q-126 0 -206 -82t-80 -202t80 -202t206 -82q104 0 174 50l101 -178q-88 -67 -224 -88v-217h-168v215q-198 26 -326.5 166.5t-128.5 335.5z" />
<glyph unicode="&#xa3;" horiz-adv-x="1399" d="M124 550v153h210q-109 180 -109 361q0 229 141.5 365.5t373.5 136.5q197 0 332.5 -99.5t176.5 -264.5l-232 -114q-62 239 -282 239q-114 0 -177.5 -66t-63.5 -186q0 -80 28 -168.5t81 -203.5h371v-153h-330q26 -58 26 -119q0 -79 -37 -153q42 -6 155 -45t170 -39 q147 0 170 161l213 -105q-24 -127 -116.5 -202.5t-229.5 -75.5q-81 0 -174.5 30.5t-177.5 61t-141 30.5q-56 0 -91 -24.5t-39 -69.5h-236q0 125 77.5 211.5t194.5 89.5q29 55 29 131q0 62 -33 118h-280z" />
<glyph unicode="&#xa4;" horiz-adv-x="1147" d="M92 192l130 129q-82 116 -82 258t82 258l-130 129l95 95l129 -129q114 84 258 84q145 0 259 -84l129 129l95 -95l-130 -129q82 -116 82 -258t-82 -258l130 -129l-95 -95l-129 129q-114 -84 -259 -84q-144 0 -258 84l-129 -129zM362 579q0 -91 60.5 -150t151.5 -59t152 59 t61 150t-61 150t-152 59t-151.5 -59t-60.5 -150z" />
<glyph unicode="&#xa5;" horiz-adv-x="1320" d="M-38 1536h345l353 -561l353 561h345l-487 -749h320v-205h-388v-144h388v-205h-388v-233h-286v233h-388v205h388v144h-388v205h320z" />
<glyph unicode="&#xa6;" horiz-adv-x="501" d="M133 0v618h236v-618h-236zM133 983v618h236v-618h-236z" />
<glyph unicode="&#xa7;" horiz-adv-x="1191" d="M70 -162l246 56q28 -79 95.5 -128.5t163.5 -49.5q91 0 142.5 45t51.5 114q0 37 -19.5 68t-61.5 58.5t-84 48.5t-110 51q-26 11 -39 17q-60 28 -106.5 54.5t-98.5 66.5t-85.5 82t-54.5 98.5t-18 118.5q5 103 69 184t179 128q-185 116 -185 317q0 172 120.5 284.5 t333.5 112.5q82 0 150.5 -18t116 -48t84 -71.5t58 -84t33.5 -90.5l-247 -54q-12 58 -61 98t-124 40q-74 0 -120 -42.5t-46 -104.5q0 -26 10.5 -50.5t34.5 -46.5t45 -38t59 -35.5t59.5 -29.5t62.5 -28q17 -7 25 -11q63 -29 112.5 -56.5t103.5 -68t89.5 -82.5t58 -98.5 t20.5 -118.5q-4 -102 -66.5 -183t-176.5 -129q180 -124 180 -324q0 -127 -67 -219.5t-177 -137.5t-248 -45q-113 0 -206.5 31.5t-153 84t-96 111.5t-52.5 123zM360 581q0 -54 41 -94.5t133 -84.5q82 -42 176 -84q62 20 108.5 62.5t46.5 99.5q0 58 -57.5 107.5t-196.5 110.5 q-30 12 -92 42q-65 -17 -112 -58t-47 -101z" />
<glyph unicode="&#xa8;" horiz-adv-x="728" d="M0 1301q0 60 42.5 103t102.5 43t102.5 -43t42.5 -103t-42.5 -102.5t-102.5 -42.5q-61 0 -103 42.5t-42 102.5zM439 1301q0 60 42.5 103t103.5 43q60 0 102 -43t42 -103t-42 -102.5t-102 -42.5q-61 0 -103.5 42.5t-42.5 102.5z" />
<glyph unicode="&#xa9;" horiz-adv-x="1708" d="M62 768q0 161 62.5 308.5t168.5 254t252.5 170t307.5 63.5t308 -63t253 -170t169 -255t63 -310t-62.5 -309.5t-168.5 -253.5t-253 -169t-308 -63t-307.5 62.5t-252.5 169t-169 254.5t-63 311zM242 767q0 -127 48.5 -241.5t130 -196.5t195 -130.5t238.5 -48.5t238.5 48.5 t195.5 131t130.5 196.5t48.5 240t-48.5 241t-131 198.5t-196 132.5t-238.5 49q-166 0 -306.5 -83t-222.5 -226t-82 -311zM440 771q0 173 123.5 291t306.5 118q157 0 257 -76l-83 -144q-58 41 -140 41q-103 0 -167.5 -66t-64.5 -164t65 -164.5t167 -66.5q82 0 140 41l83 -144 q-46 -35 -114 -56t-143 -21q-183 0 -306.5 118.5t-123.5 292.5z" />
<glyph unicode="&#xaa;" horiz-adv-x="928" d="M102 1251q0 133 83 223t213 90q129 0 204 -95v76h169v-588h-169v83q-35 -47 -90 -74.5t-120 -27.5q-123 0 -206.5 89.5t-83.5 223.5zM278 1251q0 -74 46 -122t118 -48t118 48t46 122t-46.5 122t-116.5 48t-117.5 -48t-47.5 -122z" />
<glyph unicode="&#xab;" horiz-adv-x="1096" d="M61 519l363 465l145 -115l-275 -350l275 -352l-145 -114zM505 519l363 465l146 -115l-276 -350l276 -352l-146 -114z" />
<glyph unicode="&#xac;" horiz-adv-x="1255" d="M150 654v236h956v-596h-235v360h-721z" />
<glyph unicode="&#xad;" horiz-adv-x="830" d="M115 422v233h600v-233h-600z" />
<glyph unicode="&#xae;" horiz-adv-x="929" d="M44 1146q0 173 123 298t298 125t297.5 -125t122.5 -298q0 -174 -122.5 -299t-297.5 -125t-298 125t-123 299zM136 1146q0 -136 96 -233.5t233 -97.5q136 0 232 97.5t96 233.5q0 135 -96 232.5t-232 97.5t-232.5 -97.5t-96.5 -232.5zM332 933v429h144q65 0 104 -34t39 -96 q0 -49 -26.5 -81.5t-73.5 -43.5l143 -174h-102l-124 163h-24v-163h-80zM412 1165h39q38 0 61 16.5t23 50.5t-23 50t-61 16h-39v-133z" />
<glyph unicode="&#xaf;" horiz-adv-x="759" d="M0 1200v185h760v-185h-760z" />
<glyph unicode="&#xb0;" horiz-adv-x="651" d="M115 1436q0 85 60.5 139t150.5 54t150 -54t60 -138t-59.5 -137.5t-150.5 -53.5t-151 53.5t-60 136.5zM232 1436q0 -42 26.5 -68.5t67.5 -26.5t67 26.5t26 68.5q0 43 -27 70.5t-66 27.5q-40 0 -67 -27.5t-27 -70.5z" />
<glyph unicode="&#xb1;" horiz-adv-x="1191" d="M118 0v235h956v-235h-956zM118 692v233h360v324h236v-324h360v-233h-360v-325h-236v325h-360z" />
<glyph unicode="&#xb2;" horiz-adv-x="501" d="M4 955v70q163 117 238 199.5t75 144.5q0 38 -24.5 62.5t-60.5 24.5q-79 0 -117 -119l-109 53q27 84 85.5 129.5t141.5 45.5q97 0 159.5 -57t62.5 -146q0 -72 -51 -140.5t-170 -152.5h232v-114h-462z" />
<glyph unicode="&#xb3;" horiz-adv-x="467" d="M-4 1099l119 57q3 -41 30.5 -66t71.5 -25q40 0 63 20.5t23 55.5q0 41 -29 67.5t-72 26.5q-17 0 -25 -4v83h28q34 0 60.5 24t26.5 56q0 29 -22 48.5t-54 19.5q-34 0 -59.5 -21.5t-30.5 -55.5l-101 48q44 131 201 131q88 0 141 -39t53 -108q0 -81 -68 -135q43 -22 66 -61 t23 -89q0 -84 -61 -130.5t-157 -46.5q-87 0 -145 38t-82 106z" />
<glyph unicode="&#xb4;" horiz-adv-x="433" d="M-49 1213l379 288l115 -198l-410 -214z" />
<glyph unicode="&#xb5;" horiz-adv-x="1455" d="M220 -298q0 110 24.5 322t24.5 371v558h272v-548q0 -104 53 -163t147 -59q89 0 153.5 61t64.5 145v564h272v-953h-272v108q-46 -62 -124 -100t-159 -38q-90 0 -136 54v-322h-320z" />
<glyph unicode="&#xb6;" horiz-adv-x="1286" d="M30 1074q0 200 131.5 331t351.5 131h603v-1536h-162v1374h-99v-1374h-162v595h-180q-110 0 -202 38.5t-152.5 104.5t-94.5 153t-34 183z" />
<glyph unicode="&#xb7;" horiz-adv-x="564" d="M104 502q0 74 52 126t126 52t126 -52t52 -126t-52 -126t-126 -52t-126 52t-52 126z" />
<glyph unicode="&#xb8;" horiz-adv-x="515" d="M0 -365l107 79q61 -86 156 -86q46 0 74.5 22.5t28.5 59.5q0 39 -33 62.5t-86 23.5q-65 0 -97 -20l-15 12l73 226h118l-43 -129h15q88 0 153 -47t65 -132q0 -93 -70 -152.5t-178 -59.5q-157 0 -268 141z" />
<glyph unicode="&#xb9;" horiz-adv-x="249" d="M-14 1411v125h218v-581h-125v456h-93z" />
<glyph unicode="&#xba;" horiz-adv-x="945" d="M133 1250q0 137 97 225.5t243 88.5q145 0 242 -88.5t97 -225.5t-97 -225.5t-242 -88.5q-146 0 -243 88.5t-97 225.5zM310 1250q0 -75 46 -123.5t116 -48.5t116.5 48.5t46.5 123.5q0 74 -46.5 122.5t-115.5 48.5q-71 0 -117 -48t-46 -123z" />
<glyph unicode="&#xbb;" horiz-adv-x="1095" d="M80 167l276 352l-276 350l146 115l363 -465l-363 -466zM525 167l275 352l-275 350l145 115l363 -465l-363 -466z" />
<glyph unicode="&#xbc;" horiz-adv-x="1421" d="M87 1353v183h310v-999h-187v816h-123zM130 0l957 1536h182l-958 -1536h-181zM615 184v59l489 756h184v-652h117v-163h-117v-184h-175v184h-498zM869 347h244v401z" />
<glyph unicode="&#xbd;" horiz-adv-x="1705" d="M87 1353v183h310v-999h-187v816h-123zM130 0l957 1536h182l-958 -1536h-181zM874 0v95q299 230 418.5 359t119.5 223q0 72 -49.5 122.5t-122.5 50.5q-66 0 -117.5 -47t-70.5 -125l-157 47q35 137 129 214.5t228 77.5q157 0 259 -95t102 -240q0 -121 -89.5 -238 t-307.5 -277h415v-167h-757z" />
<glyph unicode="&#xbe;" horiz-adv-x="1670" d="M38 772l163 38q14 -59 61 -94.5t116 -35.5q75 0 119.5 41t44.5 109q0 72 -47.5 121t-114.5 49q-25 0 -44 -8v126h44q60 0 103.5 44.5t43.5 102.5t-42.5 98t-104.5 40q-57 0 -101 -35.5t-58 -91.5l-139 47q26 106 107 168.5t195 62.5q135 0 224 -81t89 -204 q0 -130 -108 -201q66 -35 103 -95.5t37 -141.5q0 -137 -97.5 -225t-253.5 -88q-134 0 -226.5 69t-113.5 185zM369 0l957 1536h181l-958 -1536h-180zM864 184v59l489 756h184v-652h116v-163h-116v-184h-175v184h-498zM1117 347h245v401z" />
<glyph unicode="&#xbf;" horiz-adv-x="1102" d="M70 -52q0 172 112 300t278 153v181h251v-420q-50 13 -107 13q-129 0 -203.5 -59.5t-74.5 -164.5q0 -102 68.5 -162t181.5 -60q95 0 164 44t104 126l203 -73q-45 -157 -176 -247.5t-303 -90.5q-108 0 -202 37t-158 99.5t-101 146.5t-37 177zM408 904q0 74 52 126t126 52 t125.5 -52t51.5 -126t-51.5 -126t-125.5 -52t-126 52t-52 126z" />
<glyph unicode="&#xc0;" horiz-adv-x="1414" d="M-42 0l617 1536h265l617 -1536h-309l-136 362h-609l-136 -362h-309zM379 1891l121 192l380 -287l-85 -124zM502 614h411l-206 535z" />
<glyph unicode="&#xc1;" horiz-adv-x="1414" d="M-42 0l617 1536h265l617 -1536h-309l-136 362h-609l-136 -362h-309zM502 614h411l-206 535zM505 1796l379 287l115 -197l-410 -214z" />
<glyph unicode="&#xc2;" horiz-adv-x="1414" d="M-42 0l617 1536h265l617 -1536h-309l-136 362h-609l-136 -362h-309zM317 1861l390 286l391 -286l-106 -143l-285 209l-284 -209zM502 614h411l-206 535z" />
<glyph unicode="&#xc3;" horiz-adv-x="1414" d="M-42 0l617 1536h265l617 -1536h-309l-136 362h-609l-136 -362h-309zM212 1815q114 224 300 224q47 0 91 -15.5t78 -37.5t66 -44.5t70 -38t76 -15.5q104 0 167 113l143 -94q-113 -224 -300 -224q-47 0 -91 15.5t-77.5 37.5t-66 44.5t-70.5 38t-76 15.5q-105 0 -166 -113z M502 614h411l-206 535z" />
<glyph unicode="&#xc4;" horiz-adv-x="1414" d="M-42 0l617 1536h265l617 -1536h-309l-136 362h-609l-136 -362h-309zM344 1885q0 60 42 102.5t103 42.5q60 0 102 -42.5t42 -102.5t-42 -102.5t-102 -42.5q-61 0 -103 42.5t-42 102.5zM502 614h411l-206 535zM783 1885q0 60 42 102.5t103 42.5q60 0 102 -42.5t42 -102.5 t-42 -102.5t-102 -42.5q-61 0 -103 42.5t-42 102.5z" />
<glyph unicode="&#xc5;" horiz-adv-x="1414" d="M-42 0l617 1536h265l617 -1536h-309l-136 362h-609l-136 -362h-309zM433 1947q0 105 78.5 173.5t195.5 68.5t196 -68.5t79 -173.5t-79 -174t-196 -69t-195.5 68.5t-78.5 174.5zM502 614h411l-206 535zM589 1947q0 -48 35 -81.5t83 -33.5t83.5 33.5t35.5 81.5t-35.5 81 t-83.5 33t-83 -33t-35 -81z" />
<glyph unicode="&#xc6;" horiz-adv-x="1643" d="M-42 0l616 1537h981v-252h-561v-389h538v-252h-538v-392h561v-252h-848v363h-304l-136 -363h-309zM501 615h206v535z" />
<glyph unicode="&#xc7;" horiz-adv-x="1429" d="M82 767q0 165 62 312t169.5 253.5t261 169t327.5 62.5q139 0 267 -39t222 -107l-139 -235q-135 99 -331 99q-158 0 -279.5 -68t-185 -184.5t-63.5 -262.5t63.5 -262.5t185 -184.5t279.5 -68q196 0 331 99l139 -235q-94 -68 -222 -107t-267 -39q-37 0 -74 3l-34 -102h15 q88 0 153 -47t65 -132q0 -93 -70 -152.5t-178 -59.5q-157 0 -268 141l107 79q61 -86 156 -86q46 0 74.5 23t28.5 60q0 39 -32.5 62t-86.5 23q-65 0 -97 -20l-15 12l69 216q-282 59 -457.5 274t-175.5 503z" />
<glyph unicode="&#xc8;" horiz-adv-x="1068" d="M133 0v1536h847v-252h-560v-388h538v-252h-538v-392h560v-252h-847zM226 1891l121 192l380 -287l-85 -124z" />
<glyph unicode="&#xc9;" horiz-adv-x="1068" d="M133 0v1536h847v-252h-560v-388h538v-252h-538v-392h560v-252h-847zM352 1796l380 287l114 -197l-409 -214z" />
<glyph unicode="&#xca;" horiz-adv-x="1068" d="M133 0v1536h847v-252h-560v-388h538v-252h-538v-392h560v-252h-847zM165 1861l390 286l390 -286l-105 -143l-285 209l-285 -209z" />
<glyph unicode="&#xcb;" horiz-adv-x="1068" d="M133 0v1536h847v-252h-560v-388h538v-252h-538v-392h560v-252h-847zM191 1885q0 60 42 102.5t103 42.5q60 0 102 -42.5t42 -102.5t-42 -102.5t-102 -42.5q-61 0 -103 42.5t-42 102.5zM630 1885q0 60 42 102.5t103 42.5q60 0 102.5 -42.5t42.5 -102.5t-42.5 -102.5 t-102.5 -42.5q-61 0 -103 42.5t-42 102.5z" />
<glyph unicode="&#xcc;" horiz-adv-x="552" d="M-52 1891l121 192l380 -287l-85 -124zM133 0v1536h287v-1536h-287z" />
<glyph unicode="&#xcd;" horiz-adv-x="552" d="M74 1796l379 287l115 -197l-410 -214zM133 0v1536h287v-1536h-287z" />
<glyph unicode="&#xce;" horiz-adv-x="552" d="M-114 1861l390 286l391 -286l-106 -143l-285 209l-284 -209zM133 0v1536h287v-1536h-287z" />
<glyph unicode="&#xcf;" horiz-adv-x="552" d="M-88 1885q0 60 42.5 102.5t103.5 42.5q60 0 102 -42.5t42 -102.5t-42 -102.5t-102 -42.5q-61 0 -103.5 42.5t-42.5 102.5zM133 0v1536h287v-1536h-287zM352 1885q0 60 42 102.5t103 42.5q60 0 102 -42.5t42 -102.5t-42 -102.5t-102 -42.5q-61 0 -103 42.5t-42 102.5z" />
<glyph unicode="&#xd0;" horiz-adv-x="1523" d="M133 651v232h140v653h415q215 0 392.5 -101t279.5 -277.5t102 -389.5q0 -160 -60 -302.5t-162.5 -244.5t-246 -161.5t-305.5 -59.5h-415v651h-140zM559 257h97q214 0 356 145.5t142 365.5t-142 365.5t-356 145.5h-97v-396h280v-232h-280v-394z" />
<glyph unicode="&#xd1;" horiz-adv-x="1515" d="M133 0v1536h287l676 -1058v1058h286v-1536h-286l-676 1057v-1057h-287zM263 1815q114 224 299 224q47 0 91 -15.5t78 -37.5t66 -44.5t70 -38t76 -15.5q105 0 168 113l142 -94q-113 -224 -300 -224q-47 0 -91 15.5t-77.5 37.5t-65.5 44.5t-70 38t-76 15.5 q-106 0 -167 -113z" />
<glyph unicode="&#xd2;" horiz-adv-x="1671" d="M61 767q0 131 39 252.5t110.5 219.5t166.5 171.5t213.5 113.5t245.5 40q158 0 301.5 -62.5t247 -169t164.5 -254.5t61 -311t-61 -311t-164.5 -254.5t-247 -169t-301.5 -62.5q-127 0 -245.5 40t-213.5 113.5t-166.5 171.5t-110.5 219.5t-39 252.5zM371 767 q0 -226 131 -373t334 -147t334 147t131 373t-131 373t-334 147t-334 -147t-131 -373zM507 1891l121 192l380 -287l-85 -124z" />
<glyph unicode="&#xd3;" horiz-adv-x="1671" d="M61 767q0 131 39 252.5t110.5 219.5t166.5 171.5t213.5 113.5t245.5 40q158 0 301.5 -62.5t247 -169t164.5 -254.5t61 -311t-61 -311t-164.5 -254.5t-247 -169t-301.5 -62.5q-127 0 -245.5 40t-213.5 113.5t-166.5 171.5t-110.5 219.5t-39 252.5zM371 767 q0 -226 131 -373t334 -147t334 147t131 373t-131 373t-334 147t-334 -147t-131 -373zM633 1796l380 287l114 -197l-409 -214z" />
<glyph unicode="&#xd4;" horiz-adv-x="1671" d="M61 767q0 131 39 252.5t110.5 219.5t166.5 171.5t213.5 113.5t245.5 40q158 0 301.5 -62.5t247 -169t164.5 -254.5t61 -311t-61 -311t-164.5 -254.5t-247 -169t-301.5 -62.5q-127 0 -245.5 40t-213.5 113.5t-166.5 171.5t-110.5 219.5t-39 252.5zM371 767 q0 -226 131 -373t334 -147t334 147t131 373t-131 373t-334 147t-334 -147t-131 -373zM446 1861l390 286l390 -286l-105 -143l-285 209l-285 -209z" />
<glyph unicode="&#xd5;" horiz-adv-x="1671" d="M61 767q0 131 39 252.5t110.5 219.5t166.5 171.5t213.5 113.5t245.5 40q158 0 301.5 -62.5t247 -169t164.5 -254.5t61 -311t-61 -311t-164.5 -254.5t-247 -169t-301.5 -62.5q-127 0 -245.5 40t-213.5 113.5t-166.5 171.5t-110.5 219.5t-39 252.5zM341 1815 q114 224 299 224q47 0 91 -15.5t78 -37.5t66 -44.5t70 -38t76 -15.5q105 0 168 113l142 -94q-113 -224 -300 -224q-47 0 -91 15.5t-77.5 37.5t-65.5 44.5t-70 38t-76 15.5q-106 0 -167 -113zM371 767q0 -226 131 -373t334 -147t334 147t131 373t-131 373t-334 147t-334 -147 t-131 -373z" />
<glyph unicode="&#xd6;" horiz-adv-x="1671" d="M61 767q0 131 39 252.5t110.5 219.5t166.5 171.5t213.5 113.5t245.5 40q158 0 301.5 -62.5t247 -169t164.5 -254.5t61 -311t-61 -311t-164.5 -254.5t-247 -169t-301.5 -62.5q-127 0 -245.5 40t-213.5 113.5t-166.5 171.5t-110.5 219.5t-39 252.5zM371 767 q0 -226 131 -373t334 -147t334 147t131 373t-131 373t-334 147t-334 -147t-131 -373zM472 1885q0 60 42 102.5t103 42.5q60 0 102 -42.5t42 -102.5t-42 -102.5t-102 -42.5q-61 0 -103 42.5t-42 102.5zM911 1885q0 60 42.5 102.5t103.5 42.5q60 0 102 -42.5t42 -102.5 t-42 -102.5t-102 -42.5q-61 0 -103.5 42.5t-42.5 102.5z" />
<glyph unicode="&#xd7;" horiz-adv-x="1143" d="M105 469l302 303l-302 303l165 163l302 -301l302 301l164 -163l-302 -303l302 -303l-166 -164l-300 302l-302 -302z" />
<glyph unicode="&#xd8;" horiz-adv-x="1671" d="M61 767q0 131 39 252.5t110.5 219.5t166.5 171.5t213.5 113.5t245.5 40q234 0 428 -131l114 143l174 -133l-126 -157q184 -224 184 -519q0 -163 -61 -311t-164.5 -254.5t-247 -169t-301.5 -62.5q-202 0 -379 101l-71 -90l-173 127l75 94q-107 110 -167 256t-60 309z M371 767q0 -197 100 -334l617 779q-111 75 -252 75q-203 0 -334 -147t-131 -373zM635 292q90 -45 201 -45q203 0 334 147t131 373q0 158 -66 279z" />
<glyph unicode="&#xd9;" horiz-adv-x="1388" d="M115 546v990h286v-909q0 -198 69 -286.5t224 -88.5t224.5 88.5t69.5 286.5v909h286v-990q0 -286 -146 -431t-434 -145t-433.5 145t-145.5 431zM366 1891l121 192l380 -287l-85 -124z" />
<glyph unicode="&#xda;" horiz-adv-x="1388" d="M115 546v990h286v-909q0 -198 69 -286.5t224 -88.5t224.5 88.5t69.5 286.5v909h286v-990q0 -286 -146 -431t-434 -145t-433.5 145t-145.5 431zM492 1796l379 287l115 -197l-410 -214z" />
<glyph unicode="&#xdb;" horiz-adv-x="1388" d="M115 546v990h286v-909q0 -198 69 -286.5t224 -88.5t224.5 88.5t69.5 286.5v909h286v-990q0 -286 -146 -431t-434 -145t-433.5 145t-145.5 431zM304 1861l390 286l391 -286l-106 -143l-285 209l-284 -209z" />
<glyph unicode="&#xdc;" horiz-adv-x="1388" d="M115 546v990h286v-909q0 -198 69 -286.5t224 -88.5t224.5 88.5t69.5 286.5v909h286v-990q0 -286 -146 -431t-434 -145t-433.5 145t-145.5 431zM330 1885q0 60 42.5 102.5t103.5 42.5q60 0 102 -42.5t42 -102.5t-42 -102.5t-102 -42.5q-61 0 -103.5 42.5t-42.5 102.5z M770 1885q0 60 42 102.5t103 42.5q60 0 102 -42.5t42 -102.5t-42 -102.5t-102 -42.5q-61 0 -103 42.5t-42 102.5z" />
<glyph unicode="&#xdd;" horiz-adv-x="1320" d="M-38 1536h345l353 -561l353 561h345l-555 -854v-682h-286v682zM456 1796l380 287l114 -197l-409 -214z" />
<glyph unicode="&#xde;" horiz-adv-x="1187" d="M133 0v1536h287v-300h224q231 0 372.5 -124t141.5 -346t-141.5 -346.5t-372.5 -124.5h-224v-295h-287zM420 524h137q133 0 217 60t84 182t-84 181.5t-217 59.5h-137v-483z" />
<glyph unicode="&#xdf;" horiz-adv-x="1214" d="M57 626v210h123v337q0 194 132 325t329 131q195 0 326 -127t131 -314q0 -110 -51.5 -195.5t-148.5 -136.5q125 -55 192.5 -156.5t67.5 -235.5q0 -210 -147 -350t-373 -144h-71v250h71q100 0 166.5 75t66.5 188q0 114 -66 189t-167 75h-71v208h71q87 0 145.5 65t58.5 161 q0 93 -58.5 155.5t-145.5 62.5q-83 0 -135 -60t-52 -157v-1182h-271v626h-123z" />
<glyph unicode="&#xe0;" d="M60 478q0 217 133.5 361t338.5 144q206 0 338 -163v133h272v-953h-272v133q-132 -163 -338 -163q-135 0 -243.5 67t-168.5 183t-60 258zM284 1308l121 193l380 -288l-85 -124zM345 477q0 -119 75.5 -197t191.5 -78t190.5 77.5t74.5 197.5t-74.5 197t-190.5 77 t-191.5 -77.5t-75.5 -196.5z" />
<glyph unicode="&#xe1;" d="M60 478q0 217 133.5 361t338.5 144q206 0 338 -163v133h272v-953h-272v133q-132 -163 -338 -163q-135 0 -243.5 67t-168.5 183t-60 258zM345 477q0 -119 75.5 -197t191.5 -78t190.5 77.5t74.5 197.5t-74.5 197t-190.5 77t-191.5 -77.5t-75.5 -196.5zM410 1213l379 288 l115 -198l-410 -214z" />
<glyph unicode="&#xe2;" d="M60 478q0 217 133.5 361t338.5 144q206 0 338 -163v133h272v-953h-272v133q-132 -163 -338 -163q-135 0 -243.5 67t-168.5 183t-60 258zM222 1278l391 286l390 -286l-106 -142l-284 208l-285 -208zM345 477q0 -119 75.5 -197t191.5 -78t190.5 77.5t74.5 197.5t-74.5 197 t-190.5 77t-191.5 -77.5t-75.5 -196.5z" />
<glyph unicode="&#xe3;" d="M60 478q0 217 133.5 361t338.5 144q206 0 338 -163v133h272v-953h-272v133q-132 -163 -338 -163q-135 0 -243.5 67t-168.5 183t-60 258zM155 1232q114 223 299 223q47 0 91 -15.5t78 -37.5t66 -44.5t70 -38t76 -15.5q105 0 168 113l142 -94q-113 -224 -300 -224 q-47 0 -91 15.5t-77.5 37.5t-65.5 44.5t-70 38t-76 15.5q-106 0 -167 -112zM345 477q0 -119 75.5 -197t191.5 -78t190.5 77.5t74.5 197.5t-74.5 197t-190.5 77t-191.5 -77.5t-75.5 -196.5z" />
<glyph unicode="&#xe4;" d="M60 478q0 217 133.5 361t338.5 144q206 0 338 -163v133h272v-953h-272v133q-132 -163 -338 -163q-135 0 -243.5 67t-168.5 183t-60 258zM249 1302q0 60 42.5 103t102.5 43t102 -43t42 -103t-42 -102.5t-102 -42.5q-61 0 -103 42.5t-42 102.5zM345 477q0 -119 75.5 -197 t191.5 -78t190.5 77.5t74.5 197.5t-74.5 197t-190.5 77t-191.5 -77.5t-75.5 -196.5zM688 1302q0 60 42.5 103t102.5 43t102 -43t42 -103t-42 -102.5t-102 -42.5q-61 0 -103 42.5t-42 102.5z" />
<glyph unicode="&#xe5;" d="M60 478q0 217 133.5 361t338.5 144q206 0 338 -163v133h272v-953h-272v133q-132 -163 -338 -163q-135 0 -243.5 67t-168.5 183t-60 258zM345 477q0 -119 75.5 -197t191.5 -78t190.5 77.5t74.5 197.5t-74.5 197t-190.5 77t-191.5 -77.5t-75.5 -196.5zM376 1363 q0 105 79 173.5t196 68.5t195.5 -68.5t78.5 -173.5t-78.5 -173.5t-195.5 -68.5t-196 68.5t-79 173.5zM532 1363q0 -48 35.5 -81.5t83.5 -33.5t83 33.5t35 81.5t-35 81t-83 33t-83.5 -33t-35.5 -81z" />
<glyph unicode="&#xe6;" horiz-adv-x="1729" d="M0 265q0 134 101.5 218t259.5 84q79 0 156 -23.5t132 -64.5v83q0 92 -68 148.5t-175 56.5q-60 0 -128 -17.5t-115 -46.5l-101 174q143 106 362 106q127 0 224.5 -40t152.5 -115q69 73 163 114t200 41q221 0 362 -138.5t141 -355.5q0 -21 -3 -48h-742q0 -115 75 -184.5 t200 -69.5q76 0 136 30.5t115 96.5l196 -100q-70 -117 -191.5 -180.5t-276.5 -63.5q-241 0 -397 170q-125 -89 -223 -129.5t-198 -40.5q-163 0 -260.5 79.5t-97.5 215.5zM268 281q0 -63 57 -103.5t139 -40.5t138.5 39.5t56.5 100.5t-57.5 101t-140.5 40t-138 -38t-55 -99z M929 589h472q-11 95 -75 152t-160 57q-99 0 -164.5 -58.5t-72.5 -150.5z" />
<glyph unicode="&#xe7;" horiz-adv-x="952" d="M63 477q0 214 153 360t378 146q93 0 176.5 -26t139.5 -69l-101 -178q-71 51 -174 51q-126 0 -206 -82t-80 -202t80 -202t206 -82q104 0 174 50l101 -178q-56 -43 -139.5 -69t-176.5 -26q-31 0 -61 3l-33 -102h15q88 0 153 -47t65 -132q0 -93 -70 -152.5t-178 -59.5 q-157 0 -268 141l107 79q61 -86 155 -86q46 0 75 23t29 60q0 39 -32.5 62t-86.5 23q-65 0 -97 -20l-15 12l71 221q-161 50 -260.5 181.5t-99.5 300.5z" />
<glyph unicode="&#xe8;" horiz-adv-x="1152" d="M63 475q0 143 70 259.5t191.5 182.5t268.5 66q213 0 355 -140t142 -348q0 -23 -3 -54h-744q0 -114 76 -184t200 -70q146 0 251 127l197 -100q-68 -115 -190.5 -179.5t-272.5 -64.5q-232 0 -386.5 145t-154.5 360zM258 1321l121 193l380 -288l-85 -124zM351 577h473 q-12 98 -76.5 156.5t-161.5 58.5q-99 0 -164.5 -59.5t-70.5 -155.5z" />
<glyph unicode="&#xe9;" horiz-adv-x="1152" d="M63 475q0 143 70 259.5t191.5 182.5t268.5 66q213 0 355 -140t142 -348q0 -23 -3 -54h-744q0 -114 76 -184t200 -70q146 0 251 127l197 -100q-68 -115 -190.5 -179.5t-272.5 -64.5q-232 0 -386.5 145t-154.5 360zM351 577h473q-12 98 -76.5 156.5t-161.5 58.5 q-99 0 -164.5 -59.5t-70.5 -155.5zM384 1226l379 288l115 -198l-410 -214z" />
<glyph unicode="&#xea;" horiz-adv-x="1152" d="M63 475q0 143 70 259.5t191.5 182.5t268.5 66q213 0 355 -140t142 -348q0 -23 -3 -54h-744q0 -114 76 -184t200 -70q146 0 251 127l197 -100q-68 -115 -190.5 -179.5t-272.5 -64.5q-232 0 -386.5 145t-154.5 360zM196 1291l390 286l391 -286l-106 -142l-285 208 l-284 -208zM351 577h473q-12 98 -76.5 156.5t-161.5 58.5q-99 0 -164.5 -59.5t-70.5 -155.5z" />
<glyph unicode="&#xeb;" horiz-adv-x="1152" d="M63 475q0 143 70 259.5t191.5 182.5t268.5 66q213 0 355 -140t142 -348q0 -23 -3 -54h-744q0 -114 76 -184t200 -70q146 0 251 127l197 -100q-68 -115 -190.5 -179.5t-272.5 -64.5q-232 0 -386.5 145t-154.5 360zM222 1315q0 60 42.5 103t103.5 43q60 0 102 -43t42 -103 t-42 -102.5t-102 -42.5q-61 0 -103.5 42.5t-42.5 102.5zM351 577h473q-12 98 -76.5 156.5t-161.5 58.5q-99 0 -164.5 -59.5t-70.5 -155.5zM662 1315q0 60 42.5 103t102.5 43t102 -43t42 -103t-42 -102.5t-102 -42.5q-61 0 -103 42.5t-42 102.5z" />
<glyph unicode="&#xec;" horiz-adv-x="484" d="M-87 1308l121 193l380 -288l-84 -124zM106 0v953h272v-953h-272z" />
<glyph unicode="&#xed;" horiz-adv-x="484" d="M39 1213l380 288l114 -198l-409 -214zM106 0v953h272v-953h-272z" />
<glyph unicode="&#xee;" horiz-adv-x="614" d="M-83 1278l390 286l390 -286l-105 -142l-285 208l-285 -208zM171 0v953h272v-953h-272z" />
<glyph unicode="&#xef;" horiz-adv-x="614" d="M-57 1302q0 60 42.5 103t102.5 43t102.5 -43t42.5 -103t-42.5 -102.5t-102.5 -42.5q-61 0 -103 42.5t-42 102.5zM171 0v953h272v-953h-272zM383 1302q0 60 42.5 103t102.5 43t102 -43t42 -103t-42 -102.5t-102 -42.5q-61 0 -103 42.5t-42 102.5z" />
<glyph unicode="&#xf0;" horiz-adv-x="1280" d="M68 477q0 98 32.5 183.5t86.5 145t124.5 103t147 64t152.5 20.5q54 0 99.5 -22.5t71.5 -61.5q-87 193 -249 311l-151 -150l-121 122l120 119q-102 56 -216 90l65 229q179 -50 333 -137l138 137l118 -124l-105 -104q100 -73 181.5 -161t149.5 -201.5t105.5 -257.5 t37.5 -305q0 -221 -158.5 -364t-399.5 -143q-248 0 -405 142.5t-157 364.5zM356 477q0 -119 76 -196.5t196 -77.5q118 0 195.5 78t77.5 196q0 119 -78.5 196.5t-194.5 77.5q-117 0 -194.5 -77t-77.5 -197z" />
<glyph unicode="&#xf1;" horiz-adv-x="1210" d="M122 1233q114 223 300 223q47 0 91 -15.5t77.5 -38t66 -44.5t70 -37.5t75.5 -15.5q105 0 168 113l142 -94q-113 -224 -299 -224q-47 0 -91 15.5t-77.5 38t-66 44.5t-70.5 37.5t-76 15.5q-106 0 -167 -112zM134 0v953h272v-130q53 78 135.5 119t183.5 41q165 0 268 -105 t103 -275v-603h-272v546q0 105 -55 164.5t-151 59.5q-99 0 -155.5 -63t-56.5 -175v-532h-272z" />
<glyph unicode="&#xf2;" horiz-adv-x="1238" d="M62 477q0 147 73.5 263t200.5 179.5t283 63.5t283 -63.5t200.5 -179.5t73.5 -263t-73.5 -263t-200.5 -180t-283 -64t-283 64t-200.5 180t-73.5 263zM290 1308l121 193l380 -288l-84 -124zM346 477q0 -119 78 -196.5t195 -77.5t195 77.5t78 196.5t-78 196t-195 77 t-195 -77t-78 -196z" />
<glyph unicode="&#xf3;" horiz-adv-x="1238" d="M62 477q0 147 73.5 263t200.5 179.5t283 63.5t283 -63.5t200.5 -179.5t73.5 -263t-73.5 -263t-200.5 -180t-283 -64t-283 64t-200.5 180t-73.5 263zM346 477q0 -119 78 -196.5t195 -77.5t195 77.5t78 196.5t-78 196t-195 77t-195 -77t-78 -196zM416 1213l380 288 l114 -198l-409 -214z" />
<glyph unicode="&#xf4;" horiz-adv-x="1238" d="M62 477q0 147 73.5 263t200.5 179.5t283 63.5t283 -63.5t200.5 -179.5t73.5 -263t-73.5 -263t-200.5 -180t-283 -64t-283 64t-200.5 180t-73.5 263zM229 1278l390 286l390 -286l-105 -142l-285 208l-285 -208zM346 477q0 -119 78 -196.5t195 -77.5t195 77.5t78 196.5 t-78 196t-195 77t-195 -77t-78 -196z" />
<glyph unicode="&#xf5;" horiz-adv-x="1238" d="M62 477q0 147 73.5 263t200.5 179.5t283 63.5t283 -63.5t200.5 -179.5t73.5 -263t-73.5 -263t-200.5 -180t-283 -64t-283 64t-200.5 180t-73.5 263zM124 1233q114 223 300 223q47 0 91 -15.5t77.5 -38t66 -44.5t70 -37.5t75.5 -15.5q105 0 168 113l142 -94 q-113 -224 -299 -224q-47 0 -91 15.5t-77.5 38t-66 44.5t-70.5 37.5t-76 15.5q-106 0 -167 -112zM346 477q0 -119 78 -196.5t195 -77.5t195 77.5t78 196.5t-78 196t-195 77t-195 -77t-78 -196z" />
<glyph unicode="&#xf6;" horiz-adv-x="1238" d="M62 477q0 147 73.5 263t200.5 179.5t283 63.5t283 -63.5t200.5 -179.5t73.5 -263t-73.5 -263t-200.5 -180t-283 -64t-283 64t-200.5 180t-73.5 263zM255 1302q0 60 42.5 103t102.5 43t102.5 -43t42.5 -103t-42.5 -102.5t-102.5 -42.5q-61 0 -103 42.5t-42 102.5zM346 477 q0 -119 78 -196.5t195 -77.5t195 77.5t78 196.5t-78 196t-195 77t-195 -77t-78 -196zM694 1302q0 60 42.5 103t103.5 43q60 0 102 -43t42 -103t-42 -102.5t-102 -42.5q-61 0 -103.5 42.5t-42.5 102.5z" />
<glyph unicode="&#xf7;" horiz-adv-x="1191" d="M110 654v235h955v-235h-955zM461 344q0 55 36.5 93t89.5 38t90 -38t37 -93t-37 -92.5t-90 -37.5t-89.5 37.5t-36.5 92.5zM461 1201q0 55 36.5 92.5t89.5 37.5t90 -37.5t37 -92.5t-37 -92.5t-90 -37.5t-89.5 37.5t-36.5 92.5z" />
<glyph unicode="&#xf8;" horiz-adv-x="1238" d="M62 477q0 147 73.5 263t200.5 179.5t283 63.5q174 0 312 -80l65 80h128l-113 -137q165 -146 165 -369q0 -147 -73.5 -263t-200.5 -180t-283 -64q-150 0 -275 61l-51 -61h-127l92 113q-93 68 -144.5 169.5t-51.5 224.5zM346 477q0 -118 76 -194l349 424q-66 43 -152 43 q-117 0 -195 -77t-78 -196zM504 226q52 -23 115 -23q117 0 195 77.5t78 196.5q0 90 -50 163z" />
<glyph unicode="&#xf9;" horiz-adv-x="1197" d="M115 444v509h272v-446q0 -166 49.5 -240.5t162.5 -74.5t162 74t49 241v446h272v-509q0 -239 -118.5 -356.5t-364.5 -117.5t-365 117.5t-119 356.5zM269 1308l121 193l380 -288l-85 -124z" />
<glyph unicode="&#xfa;" horiz-adv-x="1197" d="M115 444v509h272v-446q0 -166 49.5 -240.5t162.5 -74.5t162 74t49 241v446h272v-509q0 -239 -118.5 -356.5t-364.5 -117.5t-365 117.5t-119 356.5zM395 1213l380 288l114 -198l-410 -214z" />
<glyph unicode="&#xfb;" horiz-adv-x="1197" d="M115 444v509h272v-446q0 -166 49.5 -240.5t162.5 -74.5t162 74t49 241v446h272v-509q0 -239 -118.5 -356.5t-364.5 -117.5t-365 117.5t-119 356.5zM208 1278l390 286l390 -286l-105 -142l-285 208l-285 -208z" />
<glyph unicode="&#xfc;" horiz-adv-x="1197" d="M115 444v509h272v-446q0 -166 49.5 -240.5t162.5 -74.5t162 74t49 241v446h272v-509q0 -239 -118.5 -356.5t-364.5 -117.5t-365 117.5t-119 356.5zM234 1302q0 60 42.5 103t102.5 43t102 -43t42 -103t-42 -102.5t-102 -42.5q-61 0 -103 42.5t-42 102.5zM673 1302 q0 60 42.5 103t102.5 43t102.5 -43t42.5 -103t-42.5 -102.5t-102.5 -42.5q-61 0 -103 42.5t-42 102.5z" />
<glyph unicode="&#xfd;" horiz-adv-x="1131" d="M-26 953h312l299 -580l260 580h313l-722 -1437h-311l301 595zM365 1213l380 288l114 -198l-409 -214z" />
<glyph unicode="&#xfe;" d="M132 -484v2085h272v-780q131 162 338 162q136 0 244.5 -66t168.5 -181.5t60 -257.5q0 -217 -134 -362.5t-339 -145.5q-207 0 -338 162v-616h-272zM397 477q0 -120 75 -197.5t191 -77.5t191 77.5t75 197.5t-75 197t-191 77t-191 -77t-75 -197z" />
<glyph unicode="&#xff;" horiz-adv-x="1131" d="M-26 953h312l299 -580l260 580h313l-722 -1437h-311l301 595zM204 1302q0 60 42.5 103t102.5 43t102 -43t42 -103t-42 -102.5t-102 -42.5q-61 0 -103 42.5t-42 102.5zM643 1302q0 60 42.5 103t102.5 43t102.5 -43t42.5 -103t-42.5 -102.5t-102.5 -42.5q-61 0 -103 42.5 t-42 102.5z" />
<glyph unicode="&#x152;" horiz-adv-x="1845" d="M61 768q0 168 60.5 308.5t173.5 243t284.5 159.5t383.5 57h794v-251h-561v-389h538v-252h-538v-392h561v-252h-794q-212 0 -383.5 57t-284.5 159.5t-173.5 243t-60.5 308.5zM371 768q0 -231 146.5 -371t391.5 -140v1023q-241 0 -389.5 -140.5t-148.5 -371.5z" />
<glyph unicode="&#x153;" horiz-adv-x="1967" d="M62 477q0 222 153.5 364t390.5 142q133 0 237 -52t164 -148q70 96 172.5 148t224.5 52q218 0 360 -139t142 -354q0 -25 -2 -49h-744q0 -115 75 -184.5t200 -69.5q77 0 137 30.5t115 96.5l195 -100q-70 -117 -192 -180.5t-277 -63.5q-259 0 -407 199q-58 -95 -162 -147 t-237 -52q-238 0 -391.5 142t-153.5 365zM345 477q0 -118 78 -196.5t196 -78.5t196 78.5t78 196.5t-78 196t-196 78t-196 -78t-78 -196zM1167 589h473q-12 95 -75.5 152t-158.5 57q-99 0 -165.5 -58.5t-73.5 -150.5z" />
<glyph unicode="&#x178;" horiz-adv-x="1320" d="M-38 1536h345l353 -561l353 561h345l-555 -854v-682h-286v682zM295 1885q0 60 42 102.5t103 42.5q60 0 102.5 -42.5t42.5 -102.5t-42.5 -102.5t-102.5 -42.5q-61 0 -103 42.5t-42 102.5zM734 1885q0 60 42.5 102.5t103.5 42.5q60 0 102 -42.5t42 -102.5t-42 -102.5 t-102 -42.5q-61 0 -103.5 42.5t-42.5 102.5z" />
<glyph unicode="&#x2c6;" horiz-adv-x="780" d="M0 1278l390 286l390 -286l-105 -142l-285 208l-285 -208z" />
<glyph unicode="&#x2dc;" horiz-adv-x="990" d="M0 1233q114 223 300 223q47 0 91 -15.5t77.5 -38t66 -44.5t70 -37.5t75.5 -15.5q105 0 168 113l142 -94q-113 -224 -299 -224q-47 0 -91 15.5t-77.5 38t-66 44.5t-70.5 37.5t-76 15.5q-106 0 -167 -112z" />
<glyph unicode="&#x2000;" horiz-adv-x="1094" />
<glyph unicode="&#x2001;" horiz-adv-x="2189" />
<glyph unicode="&#x2002;" horiz-adv-x="1094" />
<glyph unicode="&#x2003;" horiz-adv-x="2189" />
<glyph unicode="&#x2004;" horiz-adv-x="729" />
<glyph unicode="&#x2005;" horiz-adv-x="547" />
<glyph unicode="&#x2006;" horiz-adv-x="364" />
<glyph unicode="&#x2007;" horiz-adv-x="364" />
<glyph unicode="&#x2008;" horiz-adv-x="273" />
<glyph unicode="&#x2009;" horiz-adv-x="437" />
<glyph unicode="&#x200a;" horiz-adv-x="121" />
<glyph unicode="&#x2010;" horiz-adv-x="830" d="M115 422v233h600v-233h-600z" />
<glyph unicode="&#x2011;" horiz-adv-x="830" d="M115 422v233h600v-233h-600z" />
<glyph unicode="&#x2012;" horiz-adv-x="830" d="M115 422v233h600v-233h-600z" />
<glyph unicode="&#x2013;" horiz-adv-x="1174" d="M115 422v232h944v-232h-944z" />
<glyph unicode="&#x2014;" horiz-adv-x="2111" d="M115 422v232h1881v-232h-1881z" />
<glyph unicode="&#x2018;" horiz-adv-x="536" d="M104 1157q0 96 65 204.5t177 200.5l70 -58q-33 -31 -66.5 -97t-41.5 -118q58 -13 91 -53.5t33 -96.5q0 -68 -47.5 -115t-117.5 -47q-71 0 -117 49t-46 131z" />
<glyph unicode="&#x2019;" horiz-adv-x="536" d="M104 1404q0 68 47.5 114.5t117.5 46.5q71 0 117 -49t46 -131q0 -96 -65 -204.5t-177 -200.5l-70 58q33 31 66.5 97t41.5 118q-57 13 -90.5 54t-33.5 97z" />
<glyph unicode="&#x201a;" horiz-adv-x="536" d="M104 153q0 68 47.5 114.5t117.5 46.5q71 0 117 -49t46 -131q0 -96 -65 -204.5t-177 -200.5l-70 58q33 31 66.5 97t41.5 118q-57 13 -90.5 54t-33.5 97z" />
<glyph unicode="&#x201c;" horiz-adv-x="939" d="M104 1157q0 96 65 204.5t177 200.5l70 -58q-33 -31 -66.5 -97t-41.5 -118q58 -13 91 -53.5t33 -96.5q0 -68 -47.5 -115t-117.5 -47q-71 0 -117 49t-46 131zM507 1157q0 96 65 204.5t177 200.5l70 -58q-33 -31 -66.5 -97t-41.5 -118q58 -13 91 -53.5t33 -96.5 q0 -68 -47.5 -115t-117.5 -47q-71 0 -117 49t-46 131z" />
<glyph unicode="&#x201d;" horiz-adv-x="939" d="M104 1404q0 68 47.5 114.5t117.5 46.5q71 0 117 -49t46 -131q0 -96 -65 -204.5t-177 -200.5l-70 58q33 31 66.5 97t41.5 118q-57 13 -90.5 54t-33.5 97zM507 1404q0 68 47.5 114.5t117.5 46.5q71 0 117 -49t46 -131q0 -96 -65 -204.5t-177 -200.5l-70 58q33 31 66.5 97 t41.5 118q-57 13 -90.5 54t-33.5 97z" />
<glyph unicode="&#x201e;" horiz-adv-x="939" d="M104 153q0 68 47.5 114.5t117.5 46.5q71 0 117 -49t46 -131q0 -96 -65 -204.5t-177 -200.5l-70 58q33 31 66.5 97t41.5 118q-57 13 -90.5 54t-33.5 97zM507 153q0 68 47.5 114.5t117.5 46.5q71 0 117 -49t46 -131q0 -96 -65 -204.5t-177 -200.5l-70 58q33 31 66.5 97 t41.5 118q-57 13 -90.5 54t-33.5 97z" />
<glyph unicode="&#x2022;" horiz-adv-x="805" d="M104 665q0 125 87 211.5t212 86.5t211.5 -86.5t86.5 -211.5t-86.5 -211.5t-211.5 -86.5t-212 86.5t-87 211.5z" />
<glyph unicode="&#x2026;" horiz-adv-x="1669" d="M104 148q0 74 52 126t126 52t126 -52t52 -126t-52 -126t-126 -52t-126 52t-52 126zM657 148q0 74 52 126t126 52t126 -52t52 -126t-52 -126t-126 -52t-126 52t-52 126zM1209 148q0 74 52 126t126 52t126 -52t52 -126t-52 -126t-126 -52t-126 52t-52 126z" />
<glyph unicode="&#x202f;" horiz-adv-x="437" />
<glyph unicode="&#x2039;" horiz-adv-x="651" d="M61 519l363 465l145 -115l-274 -350l274 -351l-145 -115z" />
<glyph unicode="&#x203a;" horiz-adv-x="651" d="M80 168l276 351l-276 350l146 115l363 -465l-363 -466z" />
<glyph unicode="&#x205f;" horiz-adv-x="547" />
<glyph unicode="&#x20ac;" horiz-adv-x="1738" d="M145 525v168h145q-2 24 -2 74q0 49 2 73h-145v167h178q76 248 289 402.5t496 154.5q139 0 267 -39t222 -107l-139 -235q-135 99 -332 99q-167 0 -289.5 -73.5t-184.5 -201.5h653v-167h-703q-3 -23 -3 -73t4 -74h702v-168h-652q61 -127 184 -200t289 -73q197 0 332 99 l139 -235q-94 -68 -222 -107t-267 -39q-283 0 -495.5 154t-289.5 401h-178z" />
<glyph unicode="&#x2122;" horiz-adv-x="1120" d="M133 1457v79h335v-79h-123v-398h-89v398h-123zM469 1060l49 476h95l115 -304l116 304h95l49 -476h-90l-31 316l-111 -303h-55l-112 303l-31 -316h-89z" />
<glyph unicode="&#x25fc;" horiz-adv-x="954" d="M0 0v954h954v-954h-954z" />
<glyph unicode="&#xfb03;" horiz-adv-x="1813" d="M100 747v206h123v247q0 198 91 313.5t251 115.5q141 0 239 -73l-97 -191q-44 24 -95 24q-65 0 -90.5 -44.5t-25.5 -150.5v-241h326v247q0 198 91.5 313.5t251.5 115.5q120 0 224.5 -42.5t166.5 -103.5l-100 -186q-37 38 -97 66t-114 28q-82 0 -116.5 -46t-34.5 -151v-241 h579v-953h-273v747h-306v-747h-272v747h-326v-747h-273v747h-123z" />
<glyph unicode="&#xfb04;" horiz-adv-x="1845" d="M75 747v206h125v247q0 198 91 313.5t251 115.5q140 0 238 -73l-96 -191q-44 24 -96 24q-66 0 -91 -44.5t-25 -150.5v-241h325v247q0 198 91 313.5t251 115.5q113 0 188 -43l-63 -213q-40 16 -79 16q-65 0 -90.5 -44.5t-25.5 -150.5v-241h226v-206h-226v-747h-272v747 h-325v-747h-272v747h-125zM1388 0v1601h273v-1601h-273z" />
</font>
</defs>
</svg>
